{
  "accessors": [
    {
      "bufferView": 2,
      "componentType": 5126,
      "count": 3504,
      "max": [
        11.818168640136719,
        9.452225685119629,
        11.625898361206055
      ],
      "min": [
        -10.274532318115234,
        0.046448901295661926,
        -8.776993751525879
      ],
      "type": "VEC3"
    },
    {
      "bufferView": 2,
      "byteOffset": 42048,
      "componentType": 5126,
      "count": 3504,
      "type": "VEC3"
    },
    {
      "bufferView": 3,
      "componentType": 5126,
      "count": 3504,
      "type": "VEC4"
    },
    {
      "bufferView": 1,
      "componentType": 5126,
      "count": 3504,
      "type": "VEC2"
    },
    {
      "bufferView": 0,
      "componentType": 5125,
      "count": 19344,
      "type": "SCALAR"
    },
    {
      "bufferView": 2,
      "byteOffset": 84096,
      "componentType": 5126,
      "count": 1042,
      "max": [
        13.38626480102539,
        1.4029297828674316,
        13.372783660888672
      ],
      "min": [
        -13.38626480102539,
        2.9802322387695313e-08,
        -13.399742126464844
      ],
      "type": "VEC3"
    },
    {
      "bufferView": 2,
      "byteOffset": 96600,
      "componentType": 5126,
      "count": 1042,
      "type": "VEC3"
    },
    {
      "bufferView": 3,
      "byteOffset": 56064,
      "componentType": 5126,
      "count": 1042,
      "type": "VEC4"
    },
    {
      "bufferView": 1,
      "byteOffset": 28032,
      "componentType": 5126,
      "count": 1042,
      "type": "VEC2"
    },
    {
      "bufferView": 0,
      "byteOffset": 77376,
      "componentType": 5125,
      "count": 5760,
      "type": "SCALAR"
    }
  ],
  "asset": {
    "generator": "fab-model-conversion",
    "version": "2.0"
  },
  "bufferViews": [
    {
      "buffer": 0,
      "byteLength": 100416,
      "target": 34963
    },
    {
      "buffer": 0,
      "byteLength": 36368,
      "byteOffset": 100416,
      "byteStride": 8,
      "target": 34962
    },
    {
      "buffer": 0,
      "byteLength": 109104,
      "byteOffset": 136784,
      "byteStride": 12,
      "target": 34962
    },
    {
      "buffer": 0,
      "byteLength": 72736,
      "byteOffset": 245888,
      "byteStride": 16,
      "target": 34962
    }
  ],
  "buffers": [
    {
      "byteLength": 318624,
      "uri": "scene.bin"
    }
  ],
  "images": [
    {
      "uri": "textures/Kashipan_mat_1_baseColor.png"
    },
    {
      "uri": "textures/Kashipan_mat_1_metallicRoughness.png"
    },
    {
      "uri": "textures/Kashipan_mat_1_normal.png"
    }
  ],
  "materials": [
    {
      "doubleSided": true,
      "name": "Kashipan_mat_1",
      "normalTexture": {
        "index": 2
      },
      "occlusionTexture": {
        "index": 1
      },
      "pbrMetallicRoughness": {
        "baseColorTexture": {
          "index": 0
        },
        "metallicRoughnessTexture": {
          "index": 1
        },
        "roughnessFactor": 0.5
      }
    },
    {
      "doubleSided": true,
      "name": "Kashipan_mat_2",
      "normalTexture": {
        "index": 2
      },
      "occlusionTexture": {
        "index": 1
      },
      "pbrMetallicRoughness": {
        "baseColorTexture": {
          "index": 0
        },
        "metallicRoughnessTexture": {
          "index": 1
        },
        "roughnessFactor": 0.19999999999999996
      }
    }
  ],
  "meshes": [
    {
      "name": "Kashipan_Kashipan_mat_1_0",
      "primitives": [
        {
          "attributes": {
            "NORMAL": 1,
            "POSITION": 0,
            "TANGENT": 2,
            "TEXCOORD_0": 3
          },
          "indices": 4,
          "material": 0,
          "mode": 4
        }
      ]
    },
    {
      "name": "Kashipan_Kashipan_mat_2_0",
      "primitives": [
        {
          "attributes": {
            "NORMAL": 6,
            "POSITION": 5,
            "TANGENT": 7,
            "TEXCOORD_0": 8
          },
          "indices": 9,
          "material": 1,
          "mode": 4
        }
      ]
    }
  ],
  "nodes": [
    {
      "children": [
        1
      ],
      "matrix": [
        1.0,
        0.0,
        0.0,
        0.0,
        0.0,
        2.220446049250313e-16,
        -1.0,
        0.0,
        0.0,
        1.0,
        2.220446049250313e-16,
        0.0,
        0.0,
        0.0,
        0.0,
        1.0
      ],
      "name": "Sketchfab_model"
    },
    {
      "children": [
        2
      ],
      "matrix": [
        0.009999999776482582,
        0.0,
        0.0,
        0.0,
        0.0,
        0.0,
        0.009999999776482582,
        0.0,
        0.0,
        -0.009999999776482582,
        0.0,
        0.0,
        0.0,
        0.0,
        0.0,
        1.0
      ],
      "name": "0dc804f0d9484715a153e77c18cf142a.fbx"
    },
    {
      "children": [
        3
      ],
      "name": "RootNode"
    },
    {
      "children": [
        4,
        5
      ],
      "name": "Kashipan"
    },
    {
      "mesh": 0,
      "name": "Kashipan_Kashipan_mat_1_0"
    },
    {
      "mesh": 1,
      "name": "Kashipan_Kashipan_mat_2_0"
    }
  ],
  "samplers": [
    {
      "magFilter": 9729,
      "minFilter": 9987,
      "wrapS": 10497,
      "wrapT": 10497
    }
  ],
  "scene": 0,
  "scenes": [
    {
      "name": "Sketchfab_Scene",
      "nodes": [
        0
      ]
    }
  ],
  "textures": [
    {
      "sampler": 0,
      "source": 0
    },
    {
      "sampler": 0,
      "source": 1
    },
    {
      "sampler": 0,
      "source": 2
    }
  ]
}
