{
  "accessors": [
    {
      "bufferView": 2,
      "componentType": 5126,
      "count": 23392,
      "max": [
        -4.753460884094238,
        5.332961082458496,
        5.893373012542725
      ],
      "min": [
        -5.353425979614258,
        4.732995986938477,
        1.4885050058364868
      ],
      "type": "VEC3"
    },
    {
      "bufferView": 2,
      "byteOffset": 280704,
      "componentType": 5126,
      "count": 23392,
      "type": "VEC3"
    },
    {
      "bufferView": 1,
      "componentType": 5126,
      "count": 23392,
      "type": "VEC2"
    },
    {
      "bufferView": 0,
      "componentType": 5125,
      "count": 38568,
      "type": "SCALAR"
    }
  ],
  "asset": {
    "generator": "fab-model-conversion",
    "version": "2.0"
  },
  "bufferViews": [
    {
      "buffer": 0,
      "byteLength": 154272,
      "target": 34963
    },
    {
      "buffer": 0,
      "byteLength": 187136,
      "byteOffset": 154272,
      "byteStride": 8,
      "target": 34962
    },
    {
      "buffer": 0,
      "byteLength": 561408,
      "byteOffset": 341408,
      "byteStride": 12,
      "target": 34962
    }
  ],
  "buffers": [
    {
      "byteLength": 902816,
      "uri": "scene.bin"
    }
  ],
  "materials": [
    {
      "doubleSided": true,
      "name": "Lampadaire_mat",
      "pbrMetallicRoughness": {
        "baseColorFactor": [
          0.031064,
          0.031064,
          0.031064,
          1.0
        ],
        "metallicFactor": 0.0,
        "roughnessFactor": 0.7654439266891049
      }
    }
  ],
  "meshes": [
    {
      "name": "Object_0",
      "primitives": [
        {
          "attributes": {
            "NORMAL": 1,
            "POSITION": 0,
            "TEXCOORD_0": 2
          },
          "indices": 3,
          "material": 0,
          "mode": 4
        }
      ]
    }
  ],
  "nodes": [
    {
      "children": [
        1
      ],
      "matrix": [
        1.0,
        0.0,
        0.0,
        0.0,
        0.0,
        2.220446049250313e-16,
        -1.0,
        0.0,
        0.0,
        1.0,
        2.220446049250313e-16,
        0.0,
        0.0,
        0.0,
        0.0,
        1.0
      ],
      "name": "Sketchfab_model"
    },
    {
      "children": [
        2
      ],
      "name": "Lampadaire.obj.cleaner.materialmerger.gles"
    },
    {
      "mesh": 0,
      "name": "Object_2"
    }
  ],
  "scene": 0,
  "scenes": [
    {
      "name": "Sketchfab_Scene",
      "nodes": [
        0
      ]
    }
  ]
}
